<?xml version="1.0" encoding="UTF-8"?>
<svg width="1200" height="800" xmlns="http://www.w3.org/2000/svg">
    <defs>
        <style>
            .title-text { font-family: 'Microsoft YaHei', Arial, sans-serif; font-size: 24px; font-weight: bold; fill: #2E4A62; }
            .layer-title { font-family: 'Microsoft YaHei', Arial, sans-serif; font-size: 18px; font-weight: bold; fill: #FFFFFF; }
            .component-text { font-family: 'Microsoft YaHei', Arial, sans-serif; font-size: 14px; fill: #FFFFFF; }
            .layer-rect { stroke: #FFFFFF; stroke-width: 2; rx: 8; ry: 8; }
            .component-rect { stroke: #FFFFFF; stroke-width: 1; rx: 4; ry: 4; }
        </style>
        <filter id="shadow">
            <feDropShadow dx="2" dy="2" stdDeviation="3" flood-color="#000000" flood-opacity="0.3"/>
        </filter>
    </defs>
    
    <!-- 背景 -->
    <rect width="1200" height="800" fill="#F8F9FA" />
    
    <!-- 标题 -->
    <text x="600" y="40" text-anchor="middle" class="title-text">24.2.6 服务与营销预测功能架构图</text>
    
    <!-- 业务分析层 (Business Analysis Layer) -->
    <rect x="50" y="80" width="1100" height="103" 
          fill="#4A90E2" class="layer-rect" filter="url(#shadow)" />
    
    <!-- 层标题 -->
    <text x="70" y="110" class="layer-title">业务分析层 (Business Analysis Layer)</text>
    
    <rect x="80" y="130" width="198" height="33" 
          fill="rgba(255,255,255,0.2)" class="component-rect" />
    
    <text x="179" y="146" text-anchor="middle" class="component-text">用户行为分析</text>
    <rect x="288" y="130" width="198" height="33" 
          fill="rgba(255,255,255,0.2)" class="component-rect" />
    
    <text x="387" y="146" text-anchor="middle" class="component-text">营销效果分析</text>
    <rect x="496" y="130" width="198" height="33" 
          fill="rgba(255,255,255,0.2)" class="component-rect" />
    
    <text x="595" y="146" text-anchor="middle" class="component-text">服务质量分析</text>
    <rect x="704" y="130" width="198" height="33" 
          fill="rgba(255,255,255,0.2)" class="component-rect" />
    
    <text x="803" y="146" text-anchor="middle" class="component-text">趋势预测</text>
    <rect x="912" y="130" width="198" height="33" 
          fill="rgba(255,255,255,0.2)" class="component-rect" />
    
    <text x="1011" y="146" text-anchor="middle" class="component-text">决策支持</text>
    <!-- 箭头 -->
    <polygon points="590,188 610,188 600,203" 
             fill="#2E4A62" />
    
    <!-- 预测模型层 (Prediction Model Layer) -->
    <rect x="50" y="193" width="1100" height="103" 
          fill="#7ED321" class="layer-rect" filter="url(#shadow)" />
    
    <!-- 层标题 -->
    <text x="70" y="223" class="layer-title">预测模型层 (Prediction Model Layer)</text>
    
    <rect x="80" y="243" width="198" height="33" 
          fill="rgba(255,255,255,0.2)" class="component-rect" />
    
    <text x="179" y="259" text-anchor="middle" class="component-text">机器学习模型</text>
    <rect x="288" y="243" width="198" height="33" 
          fill="rgba(255,255,255,0.2)" class="component-rect" />
    
    <text x="387" y="259" text-anchor="middle" class="component-text">深度学习模型</text>
    <rect x="496" y="243" width="198" height="33" 
          fill="rgba(255,255,255,0.2)" class="component-rect" />
    
    <text x="595" y="259" text-anchor="middle" class="component-text">统计模型</text>
    <rect x="704" y="243" width="198" height="33" 
          fill="rgba(255,255,255,0.2)" class="component-rect" />
    
    <text x="803" y="259" text-anchor="middle" class="component-text">时间序列模型</text>
    <rect x="912" y="243" width="198" height="33" 
          fill="rgba(255,255,255,0.2)" class="component-rect" />
    
    <text x="1011" y="259" text-anchor="middle" class="component-text">集成模型</text>
    <!-- 箭头 -->
    <polygon points="590,301 610,301 600,316" 
             fill="#2E4A62" />
    
    <!-- 营销引擎层 (Marketing Engine Layer) -->
    <rect x="50" y="306" width="1100" height="103" 
          fill="#F5A623" class="layer-rect" filter="url(#shadow)" />
    
    <!-- 层标题 -->
    <text x="70" y="336" class="layer-title">营销引擎层 (Marketing Engine Layer)</text>
    
    <rect x="80" y="356" width="198" height="33" 
          fill="rgba(255,255,255,0.2)" class="component-rect" />
    
    <text x="179" y="372" text-anchor="middle" class="component-text">个性化推荐</text>
    <rect x="288" y="356" width="198" height="33" 
          fill="rgba(255,255,255,0.2)" class="component-rect" />
    
    <text x="387" y="372" text-anchor="middle" class="component-text">精准营销</text>
    <rect x="496" y="356" width="198" height="33" 
          fill="rgba(255,255,255,0.2)" class="component-rect" />
    
    <text x="595" y="372" text-anchor="middle" class="component-text">活动策划</text>
    <rect x="704" y="356" width="198" height="33" 
          fill="rgba(255,255,255,0.2)" class="component-rect" />
    
    <text x="803" y="372" text-anchor="middle" class="component-text">用户画像</text>
    <rect x="912" y="356" width="198" height="33" 
          fill="rgba(255,255,255,0.2)" class="component-rect" />
    
    <text x="1011" y="372" text-anchor="middle" class="component-text">转化优化</text>
    <!-- 箭头 -->
    <polygon points="590,414 610,414 600,429" 
             fill="#2E4A62" />
    
    <!-- 数据处理层 (Data Processing Layer) -->
    <rect x="50" y="419" width="1100" height="103" 
          fill="#BD10E0" class="layer-rect" filter="url(#shadow)" />
    
    <!-- 层标题 -->
    <text x="70" y="449" class="layer-title">数据处理层 (Data Processing Layer)</text>
    
    <rect x="80" y="469" width="198" height="33" 
          fill="rgba(255,255,255,0.2)" class="component-rect" />
    
    <text x="179" y="485" text-anchor="middle" class="component-text">数据清洗</text>
    <rect x="288" y="469" width="198" height="33" 
          fill="rgba(255,255,255,0.2)" class="component-rect" />
    
    <text x="387" y="485" text-anchor="middle" class="component-text">特征工程</text>
    <rect x="496" y="469" width="198" height="33" 
          fill="rgba(255,255,255,0.2)" class="component-rect" />
    
    <text x="595" y="485" text-anchor="middle" class="component-text">数据集成</text>
    <rect x="704" y="469" width="198" height="33" 
          fill="rgba(255,255,255,0.2)" class="component-rect" />
    
    <text x="803" y="485" text-anchor="middle" class="component-text">实时计算</text>
    <rect x="912" y="469" width="198" height="33" 
          fill="rgba(255,255,255,0.2)" class="component-rect" />
    
    <text x="1011" y="485" text-anchor="middle" class="component-text">批量处理</text>
    <!-- 箭头 -->
    <polygon points="590,527 610,527 600,542" 
             fill="#2E4A62" />
    
    <!-- 数据存储层 (Data Storage Layer) -->
    <rect x="50" y="532" width="1100" height="103" 
          fill="#B8E986" class="layer-rect" filter="url(#shadow)" />
    
    <!-- 层标题 -->
    <text x="70" y="562" class="layer-title">数据存储层 (Data Storage Layer)</text>
    
    <rect x="80" y="582" width="198" height="33" 
          fill="rgba(255,255,255,0.2)" class="component-rect" />
    
    <text x="179" y="598" text-anchor="middle" class="component-text">用户数据</text>
    <rect x="288" y="582" width="198" height="33" 
          fill="rgba(255,255,255,0.2)" class="component-rect" />
    
    <text x="387" y="598" text-anchor="middle" class="component-text">行为数据</text>
    <rect x="496" y="582" width="198" height="33" 
          fill="rgba(255,255,255,0.2)" class="component-rect" />
    
    <text x="595" y="598" text-anchor="middle" class="component-text">交易数据</text>
    <rect x="704" y="582" width="198" height="33" 
          fill="rgba(255,255,255,0.2)" class="component-rect" />
    
    <text x="803" y="598" text-anchor="middle" class="component-text">营销数据</text>
    <rect x="912" y="582" width="198" height="33" 
          fill="rgba(255,255,255,0.2)" class="component-rect" />
    
    <text x="1011" y="598" text-anchor="middle" class="component-text">预测结果</text>
    <!-- 箭头 -->
    <polygon points="590,640 610,640 600,655" 
             fill="#2E4A62" />
    
    <!-- 基础服务层 (Foundation Service Layer) -->
    <rect x="50" y="645" width="1100" height="103" 
          fill="#50E3C2" class="layer-rect" filter="url(#shadow)" />
    
    <!-- 层标题 -->
    <text x="70" y="675" class="layer-title">基础服务层 (Foundation Service Layer)</text>
    
    <rect x="80" y="695" width="198" height="33" 
          fill="rgba(255,255,255,0.2)" class="component-rect" />
    
    <text x="179" y="711" text-anchor="middle" class="component-text">数据接入</text>
    <rect x="288" y="695" width="198" height="33" 
          fill="rgba(255,255,255,0.2)" class="component-rect" />
    
    <text x="387" y="711" text-anchor="middle" class="component-text">计算资源</text>
    <rect x="496" y="695" width="198" height="33" 
          fill="rgba(255,255,255,0.2)" class="component-rect" />
    
    <text x="595" y="711" text-anchor="middle" class="component-text">模型训练</text>
    <rect x="704" y="695" width="198" height="33" 
          fill="rgba(255,255,255,0.2)" class="component-rect" />
    
    <text x="803" y="711" text-anchor="middle" class="component-text">结果输出</text>
    <rect x="912" y="695" width="198" height="33" 
          fill="rgba(255,255,255,0.2)" class="component-rect" />
    
    <text x="1011" y="711" text-anchor="middle" class="component-text">系统监控</text>
</svg>