<?xml version="1.0" encoding="UTF-8"?>
<svg width="1200" height="800" xmlns="http://www.w3.org/2000/svg">
    <defs>
        <style>
            .title-text { font-family: 'Microsoft YaHei', Arial, sans-serif; font-size: 24px; font-weight: bold; fill: #2E4A62; }
            .layer-title { font-family: 'Microsoft YaHei', Arial, sans-serif; font-size: 18px; font-weight: bold; fill: #FFFFFF; }
            .component-text { font-family: 'Microsoft YaHei', Arial, sans-serif; font-size: 14px; fill: #FFFFFF; }
            .layer-rect { stroke: #FFFFFF; stroke-width: 2; rx: 8; ry: 8; }
            .component-rect { stroke: #FFFFFF; stroke-width: 1; rx: 4; ry: 4; }
        </style>
        <filter id="shadow">
            <feDropShadow dx="2" dy="2" stdDeviation="3" flood-color="#000000" flood-opacity="0.3"/>
        </filter>
    </defs>
    
    <!-- 背景 -->
    <rect width="1200" height="800" fill="#F8F9FA" />
    
    <!-- 标题 -->
    <text x="600" y="40" text-anchor="middle" class="title-text">24.2.8 稳定性提升功能架构图</text>
    
    <!-- 可靠性保障层 (Reliability Assurance Layer) -->
    <rect x="50" y="80" width="1100" height="103" 
          fill="#4A90E2" class="layer-rect" filter="url(#shadow)" />
    
    <!-- 层标题 -->
    <text x="70" y="110" class="layer-title">可靠性保障层 (Reliability Assurance Layer)</text>
    
    <rect x="80" y="130" width="198" height="33" 
          fill="rgba(255,255,255,0.2)" class="component-rect" />
    
    <text x="179" y="146" text-anchor="middle" class="component-text">故障预防</text>
    <rect x="288" y="130" width="198" height="33" 
          fill="rgba(255,255,255,0.2)" class="component-rect" />
    
    <text x="387" y="146" text-anchor="middle" class="component-text">容错机制</text>
    <rect x="496" y="130" width="198" height="33" 
          fill="rgba(255,255,255,0.2)" class="component-rect" />
    
    <text x="595" y="146" text-anchor="middle" class="component-text">降级策略</text>
    <rect x="704" y="130" width="198" height="33" 
          fill="rgba(255,255,255,0.2)" class="component-rect" />
    
    <text x="803" y="146" text-anchor="middle" class="component-text">熔断保护</text>
    <rect x="912" y="130" width="198" height="33" 
          fill="rgba(255,255,255,0.2)" class="component-rect" />
    
    <text x="1011" y="146" text-anchor="middle" class="component-text">限流控制</text>
    <!-- 箭头 -->
    <polygon points="590,188 610,188 600,203" 
             fill="#2E4A62" />
    
    <!-- 监控告警层 (Monitoring & Alerting Layer) -->
    <rect x="50" y="193" width="1100" height="103" 
          fill="#7ED321" class="layer-rect" filter="url(#shadow)" />
    
    <!-- 层标题 -->
    <text x="70" y="223" class="layer-title">监控告警层 (Monitoring & Alerting Layer)</text>
    
    <rect x="80" y="243" width="198" height="33" 
          fill="rgba(255,255,255,0.2)" class="component-rect" />
    
    <text x="179" y="259" text-anchor="middle" class="component-text">实时监控</text>
    <rect x="288" y="243" width="198" height="33" 
          fill="rgba(255,255,255,0.2)" class="component-rect" />
    
    <text x="387" y="259" text-anchor="middle" class="component-text">异常检测</text>
    <rect x="496" y="243" width="198" height="33" 
          fill="rgba(255,255,255,0.2)" class="component-rect" />
    
    <text x="595" y="259" text-anchor="middle" class="component-text">智能告警</text>
    <rect x="704" y="243" width="198" height="33" 
          fill="rgba(255,255,255,0.2)" class="component-rect" />
    
    <text x="803" y="259" text-anchor="middle" class="component-text">故障定位</text>
    <rect x="912" y="243" width="198" height="33" 
          fill="rgba(255,255,255,0.2)" class="component-rect" />
    
    <text x="1011" y="259" text-anchor="middle" class="component-text">根因分析</text>
    <!-- 箭头 -->
    <polygon points="590,301 610,301 600,316" 
             fill="#2E4A62" />
    
    <!-- 故障处理层 (Fault Handling Layer) -->
    <rect x="50" y="306" width="1100" height="103" 
          fill="#F5A623" class="layer-rect" filter="url(#shadow)" />
    
    <!-- 层标题 -->
    <text x="70" y="336" class="layer-title">故障处理层 (Fault Handling Layer)</text>
    
    <rect x="80" y="356" width="198" height="33" 
          fill="rgba(255,255,255,0.2)" class="component-rect" />
    
    <text x="179" y="372" text-anchor="middle" class="component-text">自动恢复</text>
    <rect x="288" y="356" width="198" height="33" 
          fill="rgba(255,255,255,0.2)" class="component-rect" />
    
    <text x="387" y="372" text-anchor="middle" class="component-text">故障隔离</text>
    <rect x="496" y="356" width="198" height="33" 
          fill="rgba(255,255,255,0.2)" class="component-rect" />
    
    <text x="595" y="372" text-anchor="middle" class="component-text">服务切换</text>
    <rect x="704" y="356" width="198" height="33" 
          fill="rgba(255,255,255,0.2)" class="component-rect" />
    
    <text x="803" y="372" text-anchor="middle" class="component-text">数据恢复</text>
    <rect x="912" y="356" width="198" height="33" 
          fill="rgba(255,255,255,0.2)" class="component-rect" />
    
    <text x="1011" y="372" text-anchor="middle" class="component-text">业务补偿</text>
    <!-- 箭头 -->
    <polygon points="590,414 610,414 600,429" 
             fill="#2E4A62" />
    
    <!-- 性能优化层 (Performance Optimization Layer) -->
    <rect x="50" y="419" width="1100" height="103" 
          fill="#BD10E0" class="layer-rect" filter="url(#shadow)" />
    
    <!-- 层标题 -->
    <text x="70" y="449" class="layer-title">性能优化层 (Performance Optimization Layer)</text>
    
    <rect x="80" y="469" width="198" height="33" 
          fill="rgba(255,255,255,0.2)" class="component-rect" />
    
    <text x="179" y="485" text-anchor="middle" class="component-text">性能调优</text>
    <rect x="288" y="469" width="198" height="33" 
          fill="rgba(255,255,255,0.2)" class="component-rect" />
    
    <text x="387" y="485" text-anchor="middle" class="component-text">资源优化</text>
    <rect x="496" y="469" width="198" height="33" 
          fill="rgba(255,255,255,0.2)" class="component-rect" />
    
    <text x="595" y="485" text-anchor="middle" class="component-text">缓存策略</text>
    <rect x="704" y="469" width="198" height="33" 
          fill="rgba(255,255,255,0.2)" class="component-rect" />
    
    <text x="803" y="485" text-anchor="middle" class="component-text">负载均衡</text>
    <rect x="912" y="469" width="198" height="33" 
          fill="rgba(255,255,255,0.2)" class="component-rect" />
    
    <text x="1011" y="485" text-anchor="middle" class="component-text">并发控制</text>
    <!-- 箭头 -->
    <polygon points="590,527 610,527 600,542" 
             fill="#2E4A62" />
    
    <!-- 数据保护层 (Data Protection Layer) -->
    <rect x="50" y="532" width="1100" height="103" 
          fill="#B8E986" class="layer-rect" filter="url(#shadow)" />
    
    <!-- 层标题 -->
    <text x="70" y="562" class="layer-title">数据保护层 (Data Protection Layer)</text>
    
    <rect x="80" y="582" width="198" height="33" 
          fill="rgba(255,255,255,0.2)" class="component-rect" />
    
    <text x="179" y="598" text-anchor="middle" class="component-text">数据备份</text>
    <rect x="288" y="582" width="198" height="33" 
          fill="rgba(255,255,255,0.2)" class="component-rect" />
    
    <text x="387" y="598" text-anchor="middle" class="component-text">灾难恢复</text>
    <rect x="496" y="582" width="198" height="33" 
          fill="rgba(255,255,255,0.2)" class="component-rect" />
    
    <text x="595" y="598" text-anchor="middle" class="component-text">数据一致性</text>
    <rect x="704" y="582" width="198" height="33" 
          fill="rgba(255,255,255,0.2)" class="component-rect" />
    
    <text x="803" y="598" text-anchor="middle" class="component-text">事务管理</text>
    <rect x="912" y="582" width="198" height="33" 
          fill="rgba(255,255,255,0.2)" class="component-rect" />
    
    <text x="1011" y="598" text-anchor="middle" class="component-text">数据校验</text>
    <!-- 箭头 -->
    <polygon points="590,640 610,640 600,655" 
             fill="#2E4A62" />
    
    <!-- 基础设施层 (Infrastructure Layer) -->
    <rect x="50" y="645" width="1100" height="103" 
          fill="#50E3C2" class="layer-rect" filter="url(#shadow)" />
    
    <!-- 层标题 -->
    <text x="70" y="675" class="layer-title">基础设施层 (Infrastructure Layer)</text>
    
    <rect x="80" y="695" width="198" height="33" 
          fill="rgba(255,255,255,0.2)" class="component-rect" />
    
    <text x="179" y="711" text-anchor="middle" class="component-text">高可用架构</text>
    <rect x="288" y="695" width="198" height="33" 
          fill="rgba(255,255,255,0.2)" class="component-rect" />
    
    <text x="387" y="711" text-anchor="middle" class="component-text">分布式部署</text>
    <rect x="496" y="695" width="198" height="33" 
          fill="rgba(255,255,255,0.2)" class="component-rect" />
    
    <text x="595" y="711" text-anchor="middle" class="component-text">容器化部署</text>
    <rect x="704" y="695" width="198" height="33" 
          fill="rgba(255,255,255,0.2)" class="component-rect" />
    
    <text x="803" y="711" text-anchor="middle" class="component-text">自动扩缩容</text>
    <rect x="912" y="695" width="198" height="33" 
          fill="rgba(255,255,255,0.2)" class="component-rect" />
    
    <text x="1011" y="711" text-anchor="middle" class="component-text">健康检查</text>
</svg>