<?xml version="1.0" encoding="UTF-8"?>
<svg width="1200" height="800" xmlns="http://www.w3.org/2000/svg">
    <defs>
        <style>
            .title-text { font-family: 'Microsoft YaHei', Arial, sans-serif; font-size: 24px; font-weight: bold; fill: #2E4A62; }
            .layer-title { font-family: 'Microsoft YaHei', Arial, sans-serif; font-size: 18px; font-weight: bold; fill: #FFFFFF; }
            .component-text { font-family: 'Microsoft YaHei', Arial, sans-serif; font-size: 14px; fill: #FFFFFF; }
            .layer-rect { stroke: #FFFFFF; stroke-width: 2; rx: 8; ry: 8; }
            .component-rect { stroke: #FFFFFF; stroke-width: 1; rx: 4; ry: 4; }
        </style>
        <filter id="shadow">
            <feDropShadow dx="2" dy="2" stdDeviation="3" flood-color="#000000" flood-opacity="0.3"/>
        </filter>
    </defs>
    
    <!-- 背景 -->
    <rect width="1200" height="800" fill="#F8F9FA" />
    
    <!-- 标题 -->
    <text x="600" y="40" text-anchor="middle" class="title-text">24.2.1 模版及基础信息配置功能架构图</text>
    
    <!-- 工具层 (Tools Layer) -->
    <rect x="50" y="80" width="1100" height="103" 
          fill="#4A90E2" class="layer-rect" filter="url(#shadow)" />
    
    <!-- 层标题 -->
    <text x="70" y="110" class="layer-title">工具层 (Tools Layer)</text>
    
    <rect x="80" y="130" width="198" height="33" 
          fill="rgba(255,255,255,0.2)" class="component-rect" />
    
    <text x="179" y="146" text-anchor="middle" class="component-text">数字人模板设计</text>
    <rect x="288" y="130" width="198" height="33" 
          fill="rgba(255,255,255,0.2)" class="component-rect" />
    
    <text x="387" y="146" text-anchor="middle" class="component-text">角色配置管理</text>
    <rect x="496" y="130" width="198" height="33" 
          fill="rgba(255,255,255,0.2)" class="component-rect" />
    
    <text x="595" y="146" text-anchor="middle" class="component-text">场景模板库</text>
    <rect x="704" y="130" width="198" height="33" 
          fill="rgba(255,255,255,0.2)" class="component-rect" />
    
    <text x="803" y="146" text-anchor="middle" class="component-text">个性化定制</text>
    <rect x="912" y="130" width="198" height="33" 
          fill="rgba(255,255,255,0.2)" class="component-rect" />
    
    <text x="1011" y="146" text-anchor="middle" class="component-text">模板版本控制</text>
    <!-- 箭头 -->
    <polygon points="590,188 610,188 600,203" 
             fill="#2E4A62" />
    
    <!-- 算法库层 (Algorithm Library) -->
    <rect x="50" y="193" width="1100" height="103" 
          fill="#7ED321" class="layer-rect" filter="url(#shadow)" />
    
    <!-- 层标题 -->
    <text x="70" y="223" class="layer-title">算法库层 (Algorithm Library)</text>
    
    <rect x="80" y="243" width="198" height="33" 
          fill="rgba(255,255,255,0.2)" class="component-rect" />
    
    <text x="179" y="259" text-anchor="middle" class="component-text">模板匹配算法</text>
    <rect x="288" y="243" width="198" height="33" 
          fill="rgba(255,255,255,0.2)" class="component-rect" />
    
    <text x="387" y="259" text-anchor="middle" class="component-text">配置验证引擎</text>
    <rect x="496" y="243" width="198" height="33" 
          fill="rgba(255,255,255,0.2)" class="component-rect" />
    
    <text x="595" y="259" text-anchor="middle" class="component-text">智能推荐</text>
    <rect x="704" y="243" width="198" height="33" 
          fill="rgba(255,255,255,0.2)" class="component-rect" />
    
    <text x="803" y="259" text-anchor="middle" class="component-text">配置冲突检测</text>
    <rect x="912" y="243" width="198" height="33" 
          fill="rgba(255,255,255,0.2)" class="component-rect" />
    
    <text x="1011" y="259" text-anchor="middle" class="component-text">模板优化算法</text>
    <!-- 箭头 -->
    <polygon points="590,301 610,301 600,316" 
             fill="#2E4A62" />
    
    <!-- 开发平台层 (Development Platform) -->
    <rect x="50" y="306" width="1100" height="103" 
          fill="#F5A623" class="layer-rect" filter="url(#shadow)" />
    
    <!-- 层标题 -->
    <text x="70" y="336" class="layer-title">开发平台层 (Development Platform)</text>
    
    <rect x="80" y="356" width="198" height="33" 
          fill="rgba(255,255,255,0.2)" class="component-rect" />
    
    <text x="179" y="372" text-anchor="middle" class="component-text">模板构建器</text>
    <rect x="288" y="356" width="198" height="33" 
          fill="rgba(255,255,255,0.2)" class="component-rect" />
    
    <text x="387" y="372" text-anchor="middle" class="component-text">配置管理器</text>
    <rect x="496" y="356" width="198" height="33" 
          fill="rgba(255,255,255,0.2)" class="component-rect" />
    
    <text x="595" y="372" text-anchor="middle" class="component-text">模板测试</text>
    <rect x="704" y="356" width="198" height="33" 
          fill="rgba(255,255,255,0.2)" class="component-rect" />
    
    <text x="803" y="372" text-anchor="middle" class="component-text">配置部署</text>
    <rect x="912" y="356" width="198" height="33" 
          fill="rgba(255,255,255,0.2)" class="component-rect" />
    
    <text x="1011" y="372" text-anchor="middle" class="component-text">模板监控</text>
    <!-- 箭头 -->
    <polygon points="590,414 610,414 600,429" 
             fill="#2E4A62" />
    
    <!-- 计算框架层 (Computing Framework) -->
    <rect x="50" y="419" width="1100" height="103" 
          fill="#BD10E0" class="layer-rect" filter="url(#shadow)" />
    
    <!-- 层标题 -->
    <text x="70" y="449" class="layer-title">计算框架层 (Computing Framework)</text>
    
    <rect x="80" y="469" width="198" height="33" 
          fill="rgba(255,255,255,0.2)" class="component-rect" />
    
    <text x="179" y="485" text-anchor="middle" class="component-text">模板渲染引擎</text>
    <rect x="288" y="469" width="198" height="33" 
          fill="rgba(255,255,255,0.2)" class="component-rect" />
    
    <text x="387" y="485" text-anchor="middle" class="component-text">配置解析器</text>
    <rect x="496" y="469" width="198" height="33" 
          fill="rgba(255,255,255,0.2)" class="component-rect" />
    
    <text x="595" y="485" text-anchor="middle" class="component-text">模板缓存</text>
    <rect x="704" y="469" width="198" height="33" 
          fill="rgba(255,255,255,0.2)" class="component-rect" />
    
    <text x="803" y="485" text-anchor="middle" class="component-text">配置同步</text>
    <rect x="912" y="469" width="198" height="33" 
          fill="rgba(255,255,255,0.2)" class="component-rect" />
    
    <text x="1011" y="485" text-anchor="middle" class="component-text">模板编译</text>
    <!-- 箭头 -->
    <polygon points="590,527 610,527 600,542" 
             fill="#2E4A62" />
    
    <!-- 数据层 (Data Layer) -->
    <rect x="50" y="532" width="1100" height="103" 
          fill="#B8E986" class="layer-rect" filter="url(#shadow)" />
    
    <!-- 层标题 -->
    <text x="70" y="562" class="layer-title">数据层 (Data Layer)</text>
    
    <rect x="80" y="582" width="198" height="33" 
          fill="rgba(255,255,255,0.2)" class="component-rect" />
    
    <text x="179" y="598" text-anchor="middle" class="component-text">模板数据库</text>
    <rect x="288" y="582" width="198" height="33" 
          fill="rgba(255,255,255,0.2)" class="component-rect" />
    
    <text x="387" y="598" text-anchor="middle" class="component-text">配置存储</text>
    <rect x="496" y="582" width="198" height="33" 
          fill="rgba(255,255,255,0.2)" class="component-rect" />
    
    <text x="595" y="598" text-anchor="middle" class="component-text">用户偏好</text>
    <rect x="704" y="582" width="198" height="33" 
          fill="rgba(255,255,255,0.2)" class="component-rect" />
    
    <text x="803" y="598" text-anchor="middle" class="component-text">版本历史</text>
    <rect x="912" y="582" width="198" height="33" 
          fill="rgba(255,255,255,0.2)" class="component-rect" />
    
    <text x="1011" y="598" text-anchor="middle" class="component-text">配置备份</text>
    <!-- 箭头 -->
    <polygon points="590,640 610,640 600,655" 
             fill="#2E4A62" />
    
    <!-- 通用服务层 (Common Services) -->
    <rect x="50" y="645" width="1100" height="103" 
          fill="#50E3C2" class="layer-rect" filter="url(#shadow)" />
    
    <!-- 层标题 -->
    <text x="70" y="675" class="layer-title">通用服务层 (Common Services)</text>
    
    <rect x="80" y="695" width="198" height="33" 
          fill="rgba(255,255,255,0.2)" class="component-rect" />
    
    <text x="179" y="711" text-anchor="middle" class="component-text">用户认证</text>
    <rect x="288" y="695" width="198" height="33" 
          fill="rgba(255,255,255,0.2)" class="component-rect" />
    
    <text x="387" y="711" text-anchor="middle" class="component-text">权限管理</text>
    <rect x="496" y="695" width="198" height="33" 
          fill="rgba(255,255,255,0.2)" class="component-rect" />
    
    <text x="595" y="711" text-anchor="middle" class="component-text">数据验证</text>
    <rect x="704" y="695" width="198" height="33" 
          fill="rgba(255,255,255,0.2)" class="component-rect" />
    
    <text x="803" y="711" text-anchor="middle" class="component-text">日志记录</text>
    <rect x="912" y="695" width="198" height="33" 
          fill="rgba(255,255,255,0.2)" class="component-rect" />
    
    <text x="1011" y="711" text-anchor="middle" class="component-text">异常处理</text>
</svg>