<?xml version="1.0" encoding="UTF-8"?>
<svg width="1200" height="800" xmlns="http://www.w3.org/2000/svg">
    <defs>
        <style>
            .title-text { font-family: 'Microsoft YaHei', Arial, sans-serif; font-size: 24px; font-weight: bold; fill: #2E4A62; }
            .layer-title { font-family: 'Microsoft YaHei', Arial, sans-serif; font-size: 18px; font-weight: bold; fill: #FFFFFF; }
            .component-text { font-family: 'Microsoft YaHei', Arial, sans-serif; font-size: 14px; fill: #FFFFFF; }
            .layer-rect { stroke: #FFFFFF; stroke-width: 2; rx: 8; ry: 8; }
            .component-rect { stroke: #FFFFFF; stroke-width: 1; rx: 4; ry: 4; }
        </style>
        <filter id="shadow">
            <feDropShadow dx="2" dy="2" stdDeviation="3" flood-color="#000000" flood-opacity="0.3"/>
        </filter>
    </defs>
    
    <!-- 背景 -->
    <rect width="1200" height="800" fill="#F8F9FA" />
    
    <!-- 标题 -->
    <text x="600" y="40" text-anchor="middle" class="title-text">24.2.11 系统建设能力功能架构图</text>
    
    <!-- 开发工具层 (Development Tools Layer) -->
    <rect x="50" y="80" width="1100" height="103" 
          fill="#4A90E2" class="layer-rect" filter="url(#shadow)" />
    
    <!-- 层标题 -->
    <text x="70" y="110" class="layer-title">开发工具层 (Development Tools Layer)</text>
    
    <rect x="80" y="130" width="198" height="33" 
          fill="rgba(255,255,255,0.2)" class="component-rect" />
    
    <text x="179" y="146" text-anchor="middle" class="component-text">IDE集成</text>
    <rect x="288" y="130" width="198" height="33" 
          fill="rgba(255,255,255,0.2)" class="component-rect" />
    
    <text x="387" y="146" text-anchor="middle" class="component-text">代码生成</text>
    <rect x="496" y="130" width="198" height="33" 
          fill="rgba(255,255,255,0.2)" class="component-rect" />
    
    <text x="595" y="146" text-anchor="middle" class="component-text">调试工具</text>
    <rect x="704" y="130" width="198" height="33" 
          fill="rgba(255,255,255,0.2)" class="component-rect" />
    
    <text x="803" y="146" text-anchor="middle" class="component-text">测试工具</text>
    <rect x="912" y="130" width="198" height="33" 
          fill="rgba(255,255,255,0.2)" class="component-rect" />
    
    <text x="1011" y="146" text-anchor="middle" class="component-text">部署工具</text>
    <!-- 箭头 -->
    <polygon points="590,188 610,188 600,203" 
             fill="#2E4A62" />
    
    <!-- 平台服务层 (Platform Service Layer) -->
    <rect x="50" y="193" width="1100" height="103" 
          fill="#7ED321" class="layer-rect" filter="url(#shadow)" />
    
    <!-- 层标题 -->
    <text x="70" y="223" class="layer-title">平台服务层 (Platform Service Layer)</text>
    
    <rect x="80" y="243" width="198" height="33" 
          fill="rgba(255,255,255,0.2)" class="component-rect" />
    
    <text x="179" y="259" text-anchor="middle" class="component-text">开发平台</text>
    <rect x="288" y="243" width="198" height="33" 
          fill="rgba(255,255,255,0.2)" class="component-rect" />
    
    <text x="387" y="259" text-anchor="middle" class="component-text">测试平台</text>
    <rect x="496" y="243" width="198" height="33" 
          fill="rgba(255,255,255,0.2)" class="component-rect" />
    
    <text x="595" y="259" text-anchor="middle" class="component-text">部署平台</text>
    <rect x="704" y="243" width="198" height="33" 
          fill="rgba(255,255,255,0.2)" class="component-rect" />
    
    <text x="803" y="259" text-anchor="middle" class="component-text">监控平台</text>
    <rect x="912" y="243" width="198" height="33" 
          fill="rgba(255,255,255,0.2)" class="component-rect" />
    
    <text x="1011" y="259" text-anchor="middle" class="component-text">运维平台</text>
    <!-- 箭头 -->
    <polygon points="590,301 610,301 600,316" 
             fill="#2E4A62" />
    
    <!-- 框架支撑层 (Framework Support Layer) -->
    <rect x="50" y="306" width="1100" height="103" 
          fill="#F5A623" class="layer-rect" filter="url(#shadow)" />
    
    <!-- 层标题 -->
    <text x="70" y="336" class="layer-title">框架支撑层 (Framework Support Layer)</text>
    
    <rect x="80" y="356" width="198" height="33" 
          fill="rgba(255,255,255,0.2)" class="component-rect" />
    
    <text x="179" y="372" text-anchor="middle" class="component-text">开发框架</text>
    <rect x="288" y="356" width="198" height="33" 
          fill="rgba(255,255,255,0.2)" class="component-rect" />
    
    <text x="387" y="372" text-anchor="middle" class="component-text">微服务框架</text>
    <rect x="496" y="356" width="198" height="33" 
          fill="rgba(255,255,255,0.2)" class="component-rect" />
    
    <text x="595" y="372" text-anchor="middle" class="component-text">数据框架</text>
    <rect x="704" y="356" width="198" height="33" 
          fill="rgba(255,255,255,0.2)" class="component-rect" />
    
    <text x="803" y="372" text-anchor="middle" class="component-text">AI框架</text>
    <rect x="912" y="356" width="198" height="33" 
          fill="rgba(255,255,255,0.2)" class="component-rect" />
    
    <text x="1011" y="372" text-anchor="middle" class="component-text">前端框架</text>
    <!-- 箭头 -->
    <polygon points="590,414 610,414 600,429" 
             fill="#2E4A62" />
    
    <!-- 能力中台层 (Capability Platform Layer) -->
    <rect x="50" y="419" width="1100" height="103" 
          fill="#BD10E0" class="layer-rect" filter="url(#shadow)" />
    
    <!-- 层标题 -->
    <text x="70" y="449" class="layer-title">能力中台层 (Capability Platform Layer)</text>
    
    <rect x="80" y="469" width="198" height="33" 
          fill="rgba(255,255,255,0.2)" class="component-rect" />
    
    <text x="179" y="485" text-anchor="middle" class="component-text">通用组件</text>
    <rect x="288" y="469" width="198" height="33" 
          fill="rgba(255,255,255,0.2)" class="component-rect" />
    
    <text x="387" y="485" text-anchor="middle" class="component-text">业务组件</text>
    <rect x="496" y="469" width="198" height="33" 
          fill="rgba(255,255,255,0.2)" class="component-rect" />
    
    <text x="595" y="485" text-anchor="middle" class="component-text">算法组件</text>
    <rect x="704" y="469" width="198" height="33" 
          fill="rgba(255,255,255,0.2)" class="component-rect" />
    
    <text x="803" y="485" text-anchor="middle" class="component-text">数据组件</text>
    <rect x="912" y="469" width="198" height="33" 
          fill="rgba(255,255,255,0.2)" class="component-rect" />
    
    <text x="1011" y="485" text-anchor="middle" class="component-text">安全组件</text>
    <!-- 箭头 -->
    <polygon points="590,527 610,527 600,542" 
             fill="#2E4A62" />
    
    <!-- 资源管理层 (Resource Management Layer) -->
    <rect x="50" y="532" width="1100" height="103" 
          fill="#B8E986" class="layer-rect" filter="url(#shadow)" />
    
    <!-- 层标题 -->
    <text x="70" y="562" class="layer-title">资源管理层 (Resource Management Layer)</text>
    
    <rect x="80" y="582" width="198" height="33" 
          fill="rgba(255,255,255,0.2)" class="component-rect" />
    
    <text x="179" y="598" text-anchor="middle" class="component-text">计算资源</text>
    <rect x="288" y="582" width="198" height="33" 
          fill="rgba(255,255,255,0.2)" class="component-rect" />
    
    <text x="387" y="598" text-anchor="middle" class="component-text">存储资源</text>
    <rect x="496" y="582" width="198" height="33" 
          fill="rgba(255,255,255,0.2)" class="component-rect" />
    
    <text x="595" y="598" text-anchor="middle" class="component-text">网络资源</text>
    <rect x="704" y="582" width="198" height="33" 
          fill="rgba(255,255,255,0.2)" class="component-rect" />
    
    <text x="803" y="598" text-anchor="middle" class="component-text">开发资源</text>
    <rect x="912" y="582" width="198" height="33" 
          fill="rgba(255,255,255,0.2)" class="component-rect" />
    
    <text x="1011" y="598" text-anchor="middle" class="component-text">测试资源</text>
    <!-- 箭头 -->
    <polygon points="590,640 610,640 600,655" 
             fill="#2E4A62" />
    
    <!-- 基础设施层 (Infrastructure Layer) -->
    <rect x="50" y="645" width="1100" height="103" 
          fill="#50E3C2" class="layer-rect" filter="url(#shadow)" />
    
    <!-- 层标题 -->
    <text x="70" y="675" class="layer-title">基础设施层 (Infrastructure Layer)</text>
    
    <rect x="80" y="695" width="198" height="33" 
          fill="rgba(255,255,255,0.2)" class="component-rect" />
    
    <text x="179" y="711" text-anchor="middle" class="component-text">云原生平台</text>
    <rect x="288" y="695" width="198" height="33" 
          fill="rgba(255,255,255,0.2)" class="component-rect" />
    
    <text x="387" y="711" text-anchor="middle" class="component-text">容器平台</text>
    <rect x="496" y="695" width="198" height="33" 
          fill="rgba(255,255,255,0.2)" class="component-rect" />
    
    <text x="595" y="711" text-anchor="middle" class="component-text">DevOps平台</text>
    <rect x="704" y="695" width="198" height="33" 
          fill="rgba(255,255,255,0.2)" class="component-rect" />
    
    <text x="803" y="711" text-anchor="middle" class="component-text">数据平台</text>
    <rect x="912" y="695" width="198" height="33" 
          fill="rgba(255,255,255,0.2)" class="component-rect" />
    
    <text x="1011" y="711" text-anchor="middle" class="component-text">AI平台</text>
</svg>