<?xml version="1.0" encoding="UTF-8"?>
<svg width="1200" height="800" xmlns="http://www.w3.org/2000/svg">
    <defs>
        <style>
            .title-text { font-family: 'Microsoft YaHei', Arial, sans-serif; font-size: 24px; font-weight: bold; fill: #2E4A62; }
            .layer-title { font-family: 'Microsoft YaHei', Arial, sans-serif; font-size: 18px; font-weight: bold; fill: #FFFFFF; }
            .component-text { font-family: 'Microsoft YaHei', Arial, sans-serif; font-size: 14px; fill: #FFFFFF; }
            .layer-rect { stroke: #FFFFFF; stroke-width: 2; rx: 8; ry: 8; }
            .component-rect { stroke: #FFFFFF; stroke-width: 1; rx: 4; ry: 4; }
        </style>
        <filter id="shadow">
            <feDropShadow dx="2" dy="2" stdDeviation="3" flood-color="#000000" flood-opacity="0.3"/>
        </filter>
    </defs>
    
    <!-- 背景 -->
    <rect width="1200" height="800" fill="#F8F9FA" />
    
    <!-- 标题 -->
    <text x="600" y="40" text-anchor="middle" class="title-text">24.2.3 真人驱动及客服常用功能建设架构图</text>
    
    <!-- 交互界面层 (Interaction Interface Layer) -->
    <rect x="50" y="80" width="1100" height="103" 
          fill="#4A90E2" class="layer-rect" filter="url(#shadow)" />
    
    <!-- 层标题 -->
    <text x="70" y="110" class="layer-title">交互界面层 (Interaction Interface Layer)</text>
    
    <rect x="80" y="130" width="198" height="33" 
          fill="rgba(255,255,255,0.2)" class="component-rect" />
    
    <text x="179" y="146" text-anchor="middle" class="component-text">客服工作台</text>
    <rect x="288" y="130" width="198" height="33" 
          fill="rgba(255,255,255,0.2)" class="component-rect" />
    
    <text x="387" y="146" text-anchor="middle" class="component-text">真人控制面板</text>
    <rect x="496" y="130" width="198" height="33" 
          fill="rgba(255,255,255,0.2)" class="component-rect" />
    
    <text x="595" y="146" text-anchor="middle" class="component-text">实时监控界面</text>
    <rect x="704" y="130" width="198" height="33" 
          fill="rgba(255,255,255,0.2)" class="component-rect" />
    
    <text x="803" y="146" text-anchor="middle" class="component-text">配置管理界面</text>
    <rect x="912" y="130" width="198" height="33" 
          fill="rgba(255,255,255,0.2)" class="component-rect" />
    
    <text x="1011" y="146" text-anchor="middle" class="component-text">数据分析界面</text>
    <!-- 箭头 -->
    <polygon points="590,188 610,188 600,203" 
             fill="#2E4A62" />
    
    <!-- 驱动控制层 (Drive Control Layer) -->
    <rect x="50" y="193" width="1100" height="103" 
          fill="#7ED321" class="layer-rect" filter="url(#shadow)" />
    
    <!-- 层标题 -->
    <text x="70" y="223" class="layer-title">驱动控制层 (Drive Control Layer)</text>
    
    <rect x="80" y="243" width="198" height="33" 
          fill="rgba(255,255,255,0.2)" class="component-rect" />
    
    <text x="179" y="259" text-anchor="middle" class="component-text">真人驱动引擎</text>
    <rect x="288" y="243" width="198" height="33" 
          fill="rgba(255,255,255,0.2)" class="component-rect" />
    
    <text x="387" y="259" text-anchor="middle" class="component-text">动作捕捉系统</text>
    <rect x="496" y="243" width="198" height="33" 
          fill="rgba(255,255,255,0.2)" class="component-rect" />
    
    <text x="595" y="259" text-anchor="middle" class="component-text">表情控制</text>
    <rect x="704" y="243" width="198" height="33" 
          fill="rgba(255,255,255,0.2)" class="component-rect" />
    
    <text x="803" y="259" text-anchor="middle" class="component-text">语音同步</text>
    <rect x="912" y="243" width="198" height="33" 
          fill="rgba(255,255,255,0.2)" class="component-rect" />
    
    <text x="1011" y="259" text-anchor="middle" class="component-text">实时渲染</text>
    <!-- 箭头 -->
    <polygon points="590,301 610,301 600,316" 
             fill="#2E4A62" />
    
    <!-- 客服业务层 (Customer Service Layer) -->
    <rect x="50" y="306" width="1100" height="103" 
          fill="#F5A623" class="layer-rect" filter="url(#shadow)" />
    
    <!-- 层标题 -->
    <text x="70" y="336" class="layer-title">客服业务层 (Customer Service Layer)</text>
    
    <rect x="80" y="356" width="198" height="33" 
          fill="rgba(255,255,255,0.2)" class="component-rect" />
    
    <text x="179" y="372" text-anchor="middle" class="component-text">对话管理</text>
    <rect x="288" y="356" width="198" height="33" 
          fill="rgba(255,255,255,0.2)" class="component-rect" />
    
    <text x="387" y="372" text-anchor="middle" class="component-text">知识库检索</text>
    <rect x="496" y="356" width="198" height="33" 
          fill="rgba(255,255,255,0.2)" class="component-rect" />
    
    <text x="595" y="372" text-anchor="middle" class="component-text">工单处理</text>
    <rect x="704" y="356" width="198" height="33" 
          fill="rgba(255,255,255,0.2)" class="component-rect" />
    
    <text x="803" y="372" text-anchor="middle" class="component-text">转人工服务</text>
    <rect x="912" y="356" width="198" height="33" 
          fill="rgba(255,255,255,0.2)" class="component-rect" />
    
    <text x="1011" y="372" text-anchor="middle" class="component-text">质量评估</text>
    <!-- 箭头 -->
    <polygon points="590,414 610,414 600,429" 
             fill="#2E4A62" />
    
    <!-- 智能处理层 (AI Processing Layer) -->
    <rect x="50" y="419" width="1100" height="103" 
          fill="#BD10E0" class="layer-rect" filter="url(#shadow)" />
    
    <!-- 层标题 -->
    <text x="70" y="449" class="layer-title">智能处理层 (AI Processing Layer)</text>
    
    <rect x="80" y="469" width="198" height="33" 
          fill="rgba(255,255,255,0.2)" class="component-rect" />
    
    <text x="179" y="485" text-anchor="middle" class="component-text">NLP处理</text>
    <rect x="288" y="469" width="198" height="33" 
          fill="rgba(255,255,255,0.2)" class="component-rect" />
    
    <text x="387" y="485" text-anchor="middle" class="component-text">意图识别</text>
    <rect x="496" y="469" width="198" height="33" 
          fill="rgba(255,255,255,0.2)" class="component-rect" />
    
    <text x="595" y="485" text-anchor="middle" class="component-text">情感分析</text>
    <rect x="704" y="469" width="198" height="33" 
          fill="rgba(255,255,255,0.2)" class="component-rect" />
    
    <text x="803" y="485" text-anchor="middle" class="component-text">智能推荐</text>
    <rect x="912" y="469" width="198" height="33" 
          fill="rgba(255,255,255,0.2)" class="component-rect" />
    
    <text x="1011" y="485" text-anchor="middle" class="component-text">自动回复</text>
    <!-- 箭头 -->
    <polygon points="590,527 610,527 600,542" 
             fill="#2E4A62" />
    
    <!-- 数据管理层 (Data Management Layer) -->
    <rect x="50" y="532" width="1100" height="103" 
          fill="#B8E986" class="layer-rect" filter="url(#shadow)" />
    
    <!-- 层标题 -->
    <text x="70" y="562" class="layer-title">数据管理层 (Data Management Layer)</text>
    
    <rect x="80" y="582" width="198" height="33" 
          fill="rgba(255,255,255,0.2)" class="component-rect" />
    
    <text x="179" y="598" text-anchor="middle" class="component-text">对话记录</text>
    <rect x="288" y="582" width="198" height="33" 
          fill="rgba(255,255,255,0.2)" class="component-rect" />
    
    <text x="387" y="598" text-anchor="middle" class="component-text">用户档案</text>
    <rect x="496" y="582" width="198" height="33" 
          fill="rgba(255,255,255,0.2)" class="component-rect" />
    
    <text x="595" y="598" text-anchor="middle" class="component-text">知识库</text>
    <rect x="704" y="582" width="198" height="33" 
          fill="rgba(255,255,255,0.2)" class="component-rect" />
    
    <text x="803" y="598" text-anchor="middle" class="component-text">培训数据</text>
    <rect x="912" y="582" width="198" height="33" 
          fill="rgba(255,255,255,0.2)" class="component-rect" />
    
    <text x="1011" y="598" text-anchor="middle" class="component-text">性能数据</text>
    <!-- 箭头 -->
    <polygon points="590,640 610,640 600,655" 
             fill="#2E4A62" />
    
    <!-- 基础支撑层 (Infrastructure Support Layer) -->
    <rect x="50" y="645" width="1100" height="103" 
          fill="#50E3C2" class="layer-rect" filter="url(#shadow)" />
    
    <!-- 层标题 -->
    <text x="70" y="675" class="layer-title">基础支撑层 (Infrastructure Support Layer)</text>
    
    <rect x="80" y="695" width="198" height="33" 
          fill="rgba(255,255,255,0.2)" class="component-rect" />
    
    <text x="179" y="711" text-anchor="middle" class="component-text">实时通信</text>
    <rect x="288" y="695" width="198" height="33" 
          fill="rgba(255,255,255,0.2)" class="component-rect" />
    
    <text x="387" y="711" text-anchor="middle" class="component-text">媒体处理</text>
    <rect x="496" y="695" width="198" height="33" 
          fill="rgba(255,255,255,0.2)" class="component-rect" />
    
    <text x="595" y="711" text-anchor="middle" class="component-text">安全认证</text>
    <rect x="704" y="695" width="198" height="33" 
          fill="rgba(255,255,255,0.2)" class="component-rect" />
    
    <text x="803" y="711" text-anchor="middle" class="component-text">监控日志</text>
    <rect x="912" y="695" width="198" height="33" 
          fill="rgba(255,255,255,0.2)" class="component-rect" />
    
    <text x="1011" y="711" text-anchor="middle" class="component-text">系统集成</text>
</svg>